<?xml version="1.0" standalone="no"?>
<!DOCTYPE svg PUBLIC "-//W3C//DTD SVG 20010904//EN"
 "http://www.w3.org/TR/2001/REC-SVG-20010904/DTD/svg10.dtd">
<svg version="1.0" xmlns="http://www.w3.org/2000/svg"
 width="6000.000000pt" height="3375.000000pt" viewBox="0 0 6000.000000 3375.000000"
 preserveAspectRatio="xMidYMid meet">

<g transform="translate(0.000000,3375.000000) scale(0.100000,-0.100000)"
fill="#000000" stroke="none">
<path d="M25564 27927 c-128 -118 -1983 -1823 -2379 -2188 -430 -396 -2726
-2507 -4115 -3784 -1725 -1586 -3710 -3411 -5280 -4855 -2701 -2485 -2492
-2290 -2478 -2310 28 -39 1043 -1138 1050 -1137 8 2 76 64 1633 1496 660 608
1812 1667 2560 2355 748 688 2199 2023 3225 2966 1026 944 2119 1949 2430
2235 2366 2176 3210 2953 3308 3044 63 58 124 114 137 124 l24 18 743 -673
c409 -370 1429 -1293 2268 -2052 839 -759 1571 -1422 1627 -1473 l102 -94
-497 -458 c-1430 -1317 -1927 -1771 -1934 -1769 -4 2 -355 318 -779 703 -425
385 -781 706 -791 713 -16 12 -66 -32 -505 -436 -630 -580 -3346 -3078 -5163
-4748 -653 -600 -857 -788 -861 -795 -2 -4 219 -249 492 -545 272 -297 511
-556 530 -578 l35 -39 1255 1154 c690 635 1918 1764 2728 2509 810 745 1476
1356 1480 1358 4 1 257 -223 562 -499 305 -276 712 -644 904 -818 193 -173
870 -786 1505 -1361 635 -575 1476 -1336 1870 -1692 393 -357 718 -648 721
-648 6 0 992 1087 1033 1139 l20 24 -35 31 c-43 37 -1673 1513 -2922 2644
-494 448 -897 818 -895 822 2 5 296 278 654 607 357 329 901 829 1208 1112
l558 513 36 -34 c20 -20 514 -467 1097 -994 583 -528 1416 -1281 1850 -1674
435 -394 907 -821 1050 -950 223 -202 1074 -971 3124 -2827 251 -227 459 -412
463 -410 12 4 1048 1152 1045 1158 -2 7 -77 75 -1292 1174 -522 473 -1474
1334 -2115 1915 -641 580 -1734 1570 -2430 2199 -1594 1442 -1660 1502 -1660
1511 0 4 75 77 168 161 92 84 522 479 956 878 433 400 792 727 796 729 8 3
121 -98 2125 -1913 638 -577 1635 -1479 2215 -2004 1833 -1658 2162 -1955
3145 -2845 528 -478 1381 -1250 1895 -1715 514 -465 1036 -937 1160 -1049
l225 -203 20 24 c11 13 245 273 520 577 275 304 501 555 503 559 1 4 -624 573
-1390 1266 -766 693 -1633 1478 -1928 1745 -483 438 -1022 926 -3235 2930
-379 344 -931 843 -1226 1110 -294 267 -695 629 -890 805 -585 530 -2131 1929
-2653 2403 -424 384 -490 441 -504 430 -9 -7 -381 -348 -827 -758 -445 -410
-1120 -1030 -1500 -1379 -379 -349 -704 -647 -721 -663 l-32 -30 -538 488
c-297 268 -937 848 -1424 1288 -487 440 -1572 1422 -2411 2182 -839 759 -1530
1383 -1535 1386 -5 4 -55 -35 -110 -85z"/>
<path d="M27290 10524 c-255 -40 -467 -118 -674 -246 -366 -227 -641 -599
-747 -1011 -70 -271 -77 -584 -19 -867 120 -589 545 -1068 1124 -1267 177 -60
317 -84 538 -90 230 -7 334 4 523 52 495 127 880 440 1110 903 119 239 175
499 175 802 -1 857 -536 1523 -1370 1707 -100 22 -145 26 -340 29 -166 2 -250
-1 -320 -12z m390 -744 c277 -29 490 -155 632 -374 120 -186 164 -371 155
-659 -5 -190 -18 -259 -72 -402 -76 -198 -226 -365 -409 -454 -152 -75 -208
-86 -416 -86 -150 1 -187 4 -258 23 -374 101 -606 410 -641 850 -29 366 68
675 275 873 142 136 298 207 503 228 108 12 125 12 231 1z"/>
<path d="M47085 10528 c-912 -49 -1553 -684 -1615 -1597 -20 -306 20 -581 126
-855 167 -433 540 -781 1002 -935 380 -127 888 -121 1246 13 457 172 822 537
986 988 l30 82 0 388 0 388 -910 0 -910 0 0 -305 0 -305 530 0 c305 0 530 -4
530 -9 0 -25 -69 -166 -116 -237 -110 -167 -277 -286 -467 -334 -181 -45 -418
-34 -610 30 -257 86 -434 263 -526 524 -91 257 -86 617 10 867 93 241 288 422
534 494 74 22 117 28 241 32 161 6 260 -7 370 -48 115 -43 262 -162 323 -261
l23 -38 459 0 c252 0 459 3 459 8 0 29 -61 188 -115 297 -270 554 -861 854
-1600 813z"/>
<path d="M11270 8785 l0 -1715 415 0 415 0 0 690 0 690 520 0 520 0 0 330 0
330 -520 0 -520 0 0 360 0 360 700 0 700 0 -2 333 -3 332 -1112 3 -1113 2 0
-1715z"/>
<path d="M14908 10494 c-5 -4 -8 -776 -8 -1716 l0 -1708 688 0 c793 0 905 7
1147 67 767 191 1245 821 1245 1642 0 706 -329 1254 -922 1536 -118 56 -261
104 -388 130 -216 45 -245 47 -1015 52 -407 3 -743 2 -747 -3z m1434 -729
c375 -56 636 -272 738 -610 39 -127 45 -178 44 -375 0 -163 -3 -210 -21 -286
-76 -323 -272 -544 -573 -643 -138 -45 -203 -53 -502 -58 l-288 -5 0 996 0
996 253 0 c170 0 283 -5 349 -15z"/>
<path d="M21420 8785 l0 -1715 415 0 415 0 0 705 0 705 650 0 650 0 0 -705 0
-705 415 0 415 0 0 1715 0 1715 -415 0 -415 0 0 -670 0 -670 -650 0 -650 0 0
670 0 670 -415 0 -415 0 0 -1715z"/>
<path d="M30757 10493 c-4 -3 -7 -775 -7 -1715 l0 -1708 965 0 965 0 0 325 0
325 -545 0 -545 0 -2 1388 -3 1387 -411 3 c-226 1 -413 -1 -417 -5z"/>
<path d="M34050 8784 l0 -1715 763 4 c812 4 822 4 1042 57 278 66 532 194 735
372 414 363 609 964 515 1588 -94 627 -497 1105 -1101 1305 -271 90 -468 105
-1351 105 l-603 0 0 -1716z m1445 982 c316 -48 552 -215 680 -480 107 -224
133 -555 65 -831 -42 -170 -164 -364 -291 -462 -199 -153 -406 -203 -835 -203
l-234 0 0 995 0 995 263 0 c170 0 294 -5 352 -14z"/>
<path d="M38567 10493 c-4 -3 -7 -775 -7 -1715 l0 -1708 420 0 420 0 -2 1713
-3 1712 -411 3 c-226 1 -413 -1 -417 -5z"/>
<path d="M40970 8785 l0 -1715 415 0 415 0 0 1052 c0 842 3 1050 13 1040 6 -7
321 -480 698 -1050 l685 -1037 417 -3 417 -2 0 1715 0 1715 -415 0 -415 0 -2
-1060 -3 -1061 -696 1058 -696 1058 -416 3 -417 2 0 -1715z"/>
</g>
</svg>
